<svg width="80" height="80" viewBox="0 0 80 80" fill="none" xmlns="http://www.w3.org/2000/svg">
<rect x="0.5" y="0.5" width="79" height="79" rx="15.5" fill="#191919"/>
<rect x="0.5" y="0.5" width="79" height="79" rx="15.5" stroke="url(#paint0_linear_2_7798)"/>
<path d="M60.4 51.2668L44.0031 22.7911C43.5934 22.0935 43.0084 21.515 42.3063 21.1131C41.6041 20.7112 40.8091 20.4998 40 20.4998C39.1909 20.4998 38.3959 20.7112 37.6937 21.1131C36.9916 21.515 36.4066 22.0935 35.9969 22.7911L19.6 51.2668C19.2058 51.9415 18.998 52.709 18.998 53.4905C18.998 54.272 19.2058 55.0395 19.6 55.7143C20.0045 56.4161 20.5884 56.9977 21.2919 57.3994C21.9954 57.801 22.7931 58.0083 23.6031 57.9999H56.3969C57.2063 58.0076 58.0032 57.8 58.7059 57.3984C59.4087 56.9968 59.9921 56.4156 60.3962 55.7143C60.7911 55.0398 60.9995 54.2725 61.0001 53.491C61.0008 52.7095 60.7937 51.9419 60.4 51.2668ZM57.7994 54.2124C57.6564 54.4562 57.4512 54.6577 57.2048 54.796C56.9583 54.9344 56.6795 55.0048 56.3969 54.9999H23.6031C23.3205 55.0048 23.0417 54.9344 22.7952 54.796C22.5488 54.6577 22.3436 54.4562 22.2006 54.2124C22.0711 53.9932 22.0028 53.7432 22.0028 53.4886C22.0028 53.234 22.0711 52.9841 22.2006 52.7649L38.5975 24.2893C38.7433 24.0466 38.9495 23.8458 39.1959 23.7064C39.4423 23.5669 39.7206 23.4937 40.0037 23.4937C40.2869 23.4937 40.5652 23.5669 40.8116 23.7064C41.058 23.8458 41.2642 24.0466 41.41 24.2893L57.8069 52.7649C57.9352 52.9848 58.0022 53.2351 58.0009 53.4897C57.9996 53.7443 57.93 53.9938 57.7994 54.2124ZM38.5 42.9999V35.4999C38.5 35.1021 38.658 34.7205 38.9393 34.4392C39.2206 34.1579 39.6022 33.9999 40 33.9999C40.3978 33.9999 40.7794 34.1579 41.0607 34.4392C41.342 34.7205 41.5 35.1021 41.5 35.4999V42.9999C41.5 43.3977 41.342 43.7792 41.0607 44.0605C40.7794 44.3418 40.3978 44.4999 40 44.4999C39.6022 44.4999 39.2206 44.3418 38.9393 44.0605C38.658 43.7792 38.5 43.3977 38.5 42.9999ZM42.25 49.7499C42.25 50.1949 42.118 50.6299 41.8708 50.9999C41.6236 51.3699 41.2722 51.6583 40.861 51.8286C40.4499 51.9989 39.9975 52.0435 39.561 51.9566C39.1246 51.8698 38.7237 51.6555 38.409 51.3409C38.0943 51.0262 37.88 50.6253 37.7932 50.1888C37.7064 49.7524 37.751 49.3 37.9213 48.8888C38.0916 48.4777 38.38 48.1263 38.75 47.8791C39.12 47.6318 39.555 47.4999 40 47.4999C40.5967 47.4999 41.169 47.7369 41.591 48.1589C42.0129 48.5808 42.25 49.1531 42.25 49.7499Z" fill="url(#paint1_linear_2_7798)"/>
<defs>
<linearGradient id="paint0_linear_2_7798" x1="40" y1="0" x2="40" y2="80" gradientUnits="userSpaceOnUse">
<stop stop-color="#2D5A4F" stop-opacity="0.25"/>
<stop offset="0.5" stop-color="#2D5A4F"/>
<stop offset="1" stop-color="#2D5A4F" stop-opacity="0.25"/>
</linearGradient>
<linearGradient id="paint1_linear_2_7798" x1="39.9991" y1="20.4998" x2="39.9991" y2="61.1252" gradientUnits="userSpaceOnUse">
<stop stop-color="#2D5A4F"/>
<stop offset="1" stop-color="#AFB9A9"/>
</linearGradient>
</defs>
</svg>
