<svg width="40" height="40" viewBox="0 0 40 40" fill="none" xmlns="http://www.w3.org/2000/svg">
<rect x="0.6" y="0.6" width="38.8" height="38.8" rx="19.4" fill="#3A3A3A"/>
<rect x="0.6" y="0.6" width="38.8" height="38.8" rx="19.4" stroke="#464646" stroke-width="1.2"/>
<path d="M30.7076 16.7076L20.7076 26.7076C20.6147 26.8005 20.5044 26.8743 20.383 26.9246C20.2616 26.975 20.1315 27.0009 20.0001 27.0009C19.8687 27.0009 19.7385 26.975 19.6171 26.9246C19.4957 26.8743 19.3854 26.8005 19.2926 26.7076L9.29257 16.7076C9.10493 16.5199 8.99951 16.2654 8.99951 16.0001C8.99951 15.7347 9.10493 15.4802 9.29257 15.2926C9.48021 15.1049 9.7347 14.9995 10.0001 14.9995C10.2654 14.9995 10.5199 15.1049 10.7076 15.2926L20.0001 24.5863L29.2926 15.2926C29.3855 15.1997 29.4958 15.126 29.6172 15.0757C29.7386 15.0254 29.8687 14.9995 30.0001 14.9995C30.1315 14.9995 30.2616 15.0254 30.383 15.0757C30.5044 15.126 30.6147 15.1997 30.7076 15.2926C30.8005 15.3855 30.8742 15.4958 30.9245 15.6172C30.9747 15.7386 31.0006 15.8687 31.0006 16.0001C31.0006 16.1315 30.9747 16.2616 30.9245 16.383C30.8742 16.5044 30.8005 16.6147 30.7076 16.7076Z" fill="white"/>
</svg>
