<svg width="16" height="16" viewBox="0 0 16 16" fill="none" xmlns="http://www.w3.org/2000/svg">
<path d="M13.5 5.99997C13.5006 5.0731 13.2669 4.16112 12.8206 3.34874C12.3744 2.53635 11.7301 1.84992 10.9475 1.3532C10.165 0.856477 9.26961 0.565573 8.34456 0.507508C7.4195 0.449443 6.49478 0.626101 5.65627 1.02107C4.81776 1.41604 4.09268 2.01652 3.54835 2.76672C3.00403 3.51692 2.65812 4.39252 2.54276 5.31219C2.42741 6.23186 2.54634 7.16576 2.88852 8.02716C3.2307 8.88856 3.78502 9.64952 4.5 10.2393V15C4.49994 15.0852 4.52169 15.1691 4.56318 15.2436C4.60467 15.3181 4.66452 15.3808 4.73705 15.4256C4.80958 15.4704 4.89237 15.496 4.97756 15.4998C5.06274 15.5037 5.14749 15.4856 5.22375 15.4475L8 14.0625L10.7769 15.4506C10.8465 15.4839 10.9228 15.5008 11 15.5C11.1326 15.5 11.2598 15.4473 11.3536 15.3535C11.4473 15.2598 11.5 15.1326 11.5 15V10.2393C12.1256 9.72411 12.6293 9.07678 12.9751 8.34381C13.3209 7.61084 13.5002 6.81041 13.5 5.99997ZM3.5 5.99997C3.5 5.10995 3.76392 4.23993 4.25839 3.4999C4.75285 2.75988 5.45566 2.18311 6.27793 1.84251C7.10019 1.50192 8.00499 1.4128 8.87791 1.58644C9.75082 1.76007 10.5526 2.18865 11.182 2.81799C11.8113 3.44733 12.2399 4.24915 12.4135 5.12206C12.5872 5.99498 12.4981 6.89978 12.1575 7.72205C11.8169 8.54431 11.2401 9.24712 10.5001 9.74158C9.76005 10.2361 8.89002 10.5 8 10.5C6.80693 10.4986 5.66311 10.0241 4.81948 9.18049C3.97586 8.33686 3.50132 7.19304 3.5 5.99997ZM10.5 14.1912L8.22313 13.0531C8.15366 13.0183 8.07705 13.0002 7.99938 13.0002C7.9217 13.0002 7.84509 13.0183 7.77563 13.0531L5.5 14.1912V10.8981C6.27398 11.2937 7.13079 11.5 8 11.5C8.86922 11.5 9.72602 11.2937 10.5 10.8981V14.1912ZM8 9.49997C8.69223 9.49997 9.36892 9.2947 9.9445 8.91011C10.5201 8.52553 10.9687 7.9789 11.2336 7.33936C11.4985 6.69982 11.5678 5.99609 11.4327 5.31715C11.2977 4.63822 10.9644 4.01458 10.4749 3.5251C9.98539 3.03561 9.36175 2.70227 8.68282 2.56722C8.00388 2.43217 7.30015 2.50149 6.66061 2.76639C6.02107 3.0313 5.47444 3.4799 5.08986 4.05547C4.70527 4.63105 4.5 5.30774 4.5 5.99997C4.50099 6.92792 4.87006 7.81759 5.52622 8.47375C6.18239 9.12991 7.07205 9.49898 8 9.49997ZM8 3.49997C8.49445 3.49997 8.9778 3.64659 9.38893 3.9213C9.80005 4.196 10.1205 4.58645 10.3097 5.04326C10.4989 5.50008 10.5484 6.00274 10.452 6.4877C10.3555 6.97265 10.1174 7.41811 9.76777 7.76774C9.41814 8.11737 8.97268 8.35547 8.48773 8.45193C8.00277 8.5484 7.50011 8.49889 7.04329 8.30967C6.58648 8.12045 6.19603 7.80002 5.92133 7.3889C5.64662 6.97777 5.5 6.49442 5.5 5.99997C5.5 5.33693 5.76339 4.70104 6.23223 4.2322C6.70107 3.76336 7.33696 3.49997 8 3.49997Z" fill="white"/>
</svg>
