<svg width="40" height="40" viewBox="0 0 40 40" fill="none" xmlns="http://www.w3.org/2000/svg">
<rect x="0.6" y="0.6" width="38.8" height="38.8" rx="19.4" fill="#3A3A3A"/>
<rect x="0.6" y="0.6" width="38.8" height="38.8" rx="19.4" stroke="#464646" stroke-width="1.2"/>
<path d="M30.7076 24.7073C30.6147 24.8003 30.5044 24.874 30.383 24.9244C30.2616 24.9747 30.1315 25.0006 30.0001 25.0006C29.8687 25.0006 29.7385 24.9747 29.6171 24.9244C29.4957 24.874 29.3854 24.8003 29.2926 24.7073L20.0001 15.4136L10.7076 24.7073C10.5199 24.895 10.2654 25.0004 10.0001 25.0004C9.7347 25.0004 9.48021 24.895 9.29257 24.7073C9.10493 24.5197 8.99951 24.2652 8.99951 23.9998C8.99951 23.7344 9.10493 23.4799 9.29257 23.2923L19.2926 13.2923C19.3854 13.1993 19.4957 13.1256 19.6171 13.0753C19.7385 13.0249 19.8687 12.999 20.0001 12.999C20.1315 12.999 20.2616 13.0249 20.383 13.0753C20.5044 13.1256 20.6147 13.1993 20.7076 13.2923L30.7076 23.2923C30.8005 23.3852 30.8743 23.4955 30.9246 23.6169C30.975 23.7383 31.0009 23.8684 31.0009 23.9998C31.0009 24.1312 30.975 24.2614 30.9246 24.3828C30.8743 24.5041 30.8005 24.6144 30.7076 24.7073Z" fill="white"/>
</svg>
